<svg xmlns="http://www.w3.org/2000/svg" xmlns:xlink="http://www.w3.org/1999/xlink" width="500" zoomAndPan="magnify" viewBox="0 0 375 374.999991" height="500" preserveAspectRatio="xMidYMid meet" version="1.0"><defs><g/><clipPath id="9fec4e73c8"><path d="M 174 124.3125 L 201 124.3125 L 201 161 L 174 161 Z M 174 124.3125 " clip-rule="nonzero"/></clipPath><clipPath id="44b838adbe"><path d="M 151.25 147 L 188 147 L 188 175 L 151.25 175 Z M 151.25 147 " clip-rule="nonzero"/></clipPath></defs><path fill="#a6a6a6" d="M 195.390625 196.765625 L 179.582031 196.765625 C 176.53125 196.765625 174.035156 194.269531 174.035156 191.21875 L 174.035156 183.542969 L 177.730469 183.542969 L 177.730469 191.21875 C 177.730469 192.238281 178.5625 193.070312 179.582031 193.070312 L 195.390625 193.070312 C 196.410156 193.070312 197.242188 192.238281 197.242188 191.21875 L 197.242188 160.558594 L 200.941406 160.558594 L 200.941406 191.21875 C 200.941406 194.269531 198.460938 196.765625 195.390625 196.765625 Z M 195.390625 196.765625 " fill-opacity="1" fill-rule="nonzero"/><g clip-path="url(#9fec4e73c8)"><path fill="#03989e" d="M 177.730469 160.558594 L 174.035156 160.558594 L 174.035156 129.898438 C 174.035156 126.84375 176.53125 124.347656 179.582031 124.347656 L 195.390625 124.347656 C 198.445312 124.347656 200.941406 126.84375 200.941406 129.898438 L 200.941406 137.570312 L 197.242188 137.570312 L 197.242188 129.898438 C 197.242188 128.878906 196.410156 128.046875 195.390625 128.046875 L 179.582031 128.046875 C 178.5625 128.046875 177.730469 128.878906 177.730469 129.898438 Z M 177.730469 160.558594 " fill-opacity="1" fill-rule="nonzero"/></g><g clip-path="url(#44b838adbe)"><path fill="#03989e" d="M 187.496094 174.019531 L 156.835938 174.019531 C 153.785156 174.019531 151.285156 171.523438 151.285156 168.472656 L 151.285156 152.660156 C 151.285156 149.609375 153.785156 147.113281 156.835938 147.113281 L 164.507812 147.113281 L 164.507812 150.8125 L 156.835938 150.8125 C 155.816406 150.8125 154.984375 151.644531 154.984375 152.660156 L 154.984375 168.472656 C 154.984375 169.488281 155.816406 170.324219 156.835938 170.324219 L 187.496094 170.324219 Z M 187.496094 174.019531 " fill-opacity="1" fill-rule="nonzero"/></g><path fill="#a6a6a6" d="M 218.15625 174.019531 L 210.484375 174.019531 L 210.484375 170.324219 L 218.15625 170.324219 C 219.175781 170.324219 220.007812 169.488281 220.007812 168.472656 L 220.007812 152.660156 C 220.007812 151.644531 219.175781 150.8125 218.15625 150.8125 L 187.496094 150.8125 L 187.496094 147.113281 L 218.15625 147.113281 C 221.207031 147.113281 223.707031 149.609375 223.707031 152.660156 L 223.707031 168.472656 C 223.707031 171.523438 221.207031 174.019531 218.15625 174.019531 Z M 218.15625 174.019531 " fill-opacity="1" fill-rule="nonzero"/><g fill="#03989e" fill-opacity="1"><g transform="translate(81.35125, 228.662738)"><g><path d="M 23.53125 0 L 20.453125 0 L 20.421875 -14.796875 L 14.171875 -2.0625 L 11.984375 -2.0625 L 5.734375 -14.796875 L 5.734375 0 L 2.609375 0 L 2.609375 -19.796875 L 6.5625 -19.796875 L 13.09375 -6.640625 L 19.59375 -19.796875 L 23.53125 -19.796875 Z M 23.53125 0 "/></g></g></g><g fill="#03989e" fill-opacity="1"><g transform="translate(111.738545, 228.662738)"><g><path d="M 16.75 -16.796875 L 5.9375 -16.796875 L 5.9375 -11.453125 L 15.609375 -11.453125 L 15.609375 -8.453125 L 5.9375 -8.453125 L 5.9375 -3 L 17.078125 -3 L 17.078125 0 L 2.609375 0 L 2.609375 -19.796875 L 16.75 -19.796875 Z M 16.75 -16.796875 "/></g></g></g><g fill="#03989e" fill-opacity="1"><g transform="translate(134.522375, 228.662738)"><g><path d="M 2.609375 -19.796875 L 10.71875 -19.796875 C 13.675781 -19.796875 16.117188 -18.863281 18.046875 -17 C 19.984375 -15.132812 20.953125 -12.765625 20.953125 -9.890625 C 20.953125 -7.023438 19.976562 -4.660156 18.03125 -2.796875 C 16.09375 -0.929688 13.628906 0 10.640625 0 L 2.609375 0 Z M 5.9375 -16.796875 L 5.9375 -3 L 10.796875 -3 C 12.742188 -3 14.363281 -3.644531 15.65625 -4.9375 C 16.945312 -6.226562 17.59375 -7.875 17.59375 -9.875 C 17.59375 -11.875 16.925781 -13.523438 15.59375 -14.828125 C 14.269531 -16.140625 12.625 -16.796875 10.65625 -16.796875 Z M 5.9375 -16.796875 "/></g></g></g><g fill="#03989e" fill-opacity="1"><g transform="translate(160.669817, 228.662738)"><g><path d="M 5.9375 0 L 2.609375 0 L 2.609375 -19.796875 L 5.9375 -19.796875 Z M 5.9375 0 "/></g></g></g><g fill="#03989e" fill-opacity="1"><g transform="translate(173.447608, 228.662738)"><g><path d="M 11.375 -19.875 C 12.769531 -19.875 14.128906 -19.601562 15.453125 -19.0625 C 16.785156 -18.53125 17.929688 -17.785156 18.890625 -16.828125 L 16.9375 -14.390625 C 16.21875 -15.160156 15.367188 -15.769531 14.390625 -16.21875 C 13.410156 -16.675781 12.421875 -16.90625 11.421875 -16.90625 C 9.441406 -16.90625 7.769531 -16.234375 6.40625 -14.890625 C 5.039062 -13.546875 4.359375 -11.898438 4.359375 -9.953125 C 4.359375 -7.992188 5.039062 -6.335938 6.40625 -4.984375 C 7.769531 -3.640625 9.441406 -2.96875 11.421875 -2.96875 C 13.484375 -2.96875 15.320312 -3.75 16.9375 -5.3125 L 18.921875 -3.109375 C 17.898438 -2.109375 16.710938 -1.316406 15.359375 -0.734375 C 14.003906 -0.148438 12.632812 0.140625 11.25 0.140625 C 8.351562 0.140625 5.914062 -0.820312 3.9375 -2.75 C 1.957031 -4.6875 0.96875 -7.078125 0.96875 -9.921875 C 0.96875 -12.734375 1.96875 -15.09375 3.96875 -17 C 5.976562 -18.914062 8.445312 -19.875 11.375 -19.875 Z M 11.375 -19.875 "/></g></g></g><g fill="#03989e" fill-opacity="1"><g transform="translate(197.39034, 228.662738)"><g><path d="M 15.390625 -4.46875 L 5.40625 -4.46875 L 3.5 0 L 0.03125 0 L 8.765625 -19.796875 L 12.1875 -19.796875 L 20.84375 0 L 17.28125 0 Z M 14.109375 -7.4375 L 10.375 -16.234375 L 6.640625 -7.4375 Z M 14.109375 -7.4375 "/></g></g></g><g fill="#03989e" fill-opacity="1"><g transform="translate(222.491958, 228.662738)"><g><path d="M 5.9375 -3.03125 L 14.515625 -3.03125 L 14.515625 0 L 2.609375 0 L 2.609375 -19.796875 L 5.9375 -19.796875 Z M 5.9375 -3.03125 "/></g></g></g><g fill="#03989e" fill-opacity="1"><g transform="translate(241.827391, 228.662738)"><g><path d="M 5.9375 0 L 2.609375 0 L 2.609375 -19.796875 L 5.9375 -19.796875 Z M 5.9375 0 "/></g></g></g><g fill="#03989e" fill-opacity="1"><g transform="translate(254.605188, 228.662738)"><g><path d="M 15.859375 -16.796875 L 5.9375 -16.796875 L 5.9375 -11.09375 L 14.9375 -11.09375 L 14.9375 -8.109375 L 5.9375 -8.109375 L 5.9375 0 L 2.609375 0 L 2.609375 -19.796875 L 15.890625 -19.796875 Z M 15.859375 -16.796875 "/></g></g></g><g fill="#03989e" fill-opacity="1"><g transform="translate(275.099506, 228.662738)"><g><path d="M 16.75 -16.796875 L 5.9375 -16.796875 L 5.9375 -11.453125 L 15.609375 -11.453125 L 15.609375 -8.453125 L 5.9375 -8.453125 L 5.9375 -3 L 17.078125 -3 L 17.078125 0 L 2.609375 0 L 2.609375 -19.796875 L 16.75 -19.796875 Z M 16.75 -16.796875 "/></g></g></g><g fill="#a6a6a6" fill-opacity="1"><g transform="translate(130.252182, 248.687928)"><g><path d="M 6.984375 0 L 5.8125 0 L 5.8125 -2.90625 L 2.09375 -2.90625 L 2.09375 0 L 0.921875 0 L 0.921875 -7 L 2.09375 -7 L 2.09375 -3.953125 L 5.8125 -3.953125 L 5.8125 -7 L 6.984375 -7 Z M 6.984375 0 "/></g></g></g><g fill="#a6a6a6" fill-opacity="1"><g transform="translate(140.659058, 248.687928)"><g><path d="M 5.921875 -5.9375 L 2.09375 -5.9375 L 2.09375 -4.046875 L 5.515625 -4.046875 L 5.515625 -2.984375 L 2.09375 -2.984375 L 2.09375 -1.0625 L 6.046875 -1.0625 L 6.046875 0 L 0.921875 0 L 0.921875 -7 L 5.921875 -7 Z M 5.921875 -5.9375 "/></g></g></g><g fill="#a6a6a6" fill-opacity="1"><g transform="translate(149.716469, 248.687928)"><g><path d="M 5.4375 -1.578125 L 1.90625 -1.578125 L 1.234375 0 L 0.015625 0 L 3.09375 -7 L 4.3125 -7 L 7.375 0 L 6.109375 0 Z M 4.984375 -2.625 L 3.671875 -5.734375 L 2.34375 -2.625 Z M 4.984375 -2.625 "/></g></g></g><g fill="#a6a6a6" fill-opacity="1"><g transform="translate(159.593552, 248.687928)"><g><path d="M 2.09375 -1.0625 L 5.125 -1.0625 L 5.125 0 L 0.921875 0 L 0.921875 -7 L 2.09375 -7 Z M 2.09375 -1.0625 "/></g></g></g><g fill="#a6a6a6" fill-opacity="1"><g transform="translate(167.431436, 248.687928)"><g><path d="M 5.703125 -5.9375 L 3.484375 -5.9375 L 3.484375 0 L 2.296875 0 L 2.296875 -5.9375 L 0.09375 -5.9375 L 0.09375 -7 L 5.703125 -7 Z M 5.703125 -5.9375 "/></g></g></g><g fill="#a6a6a6" fill-opacity="1"><g transform="translate(175.719141, 248.687928)"><g><path d="M 6.984375 0 L 5.8125 0 L 5.8125 -2.90625 L 2.09375 -2.90625 L 2.09375 0 L 0.921875 0 L 0.921875 -7 L 2.09375 -7 L 2.09375 -3.953125 L 5.8125 -3.953125 L 5.8125 -7 L 6.984375 -7 Z M 6.984375 0 "/></g></g></g><g fill="#a6a6a6" fill-opacity="1"><g transform="translate(186.126017, 248.687928)"><g/></g></g><g fill="#a6a6a6" fill-opacity="1"><g transform="translate(191.204996, 248.687928)"><g><path d="M 4.015625 -7.03125 C 4.515625 -7.03125 5 -6.929688 5.46875 -6.734375 C 5.9375 -6.546875 6.34375 -6.285156 6.6875 -5.953125 L 5.984375 -5.09375 C 5.734375 -5.363281 5.429688 -5.578125 5.078125 -5.734375 C 4.734375 -5.898438 4.390625 -5.984375 4.046875 -5.984375 C 3.335938 -5.984375 2.742188 -5.742188 2.265625 -5.265625 C 1.785156 -4.785156 1.546875 -4.203125 1.546875 -3.515625 C 1.546875 -2.828125 1.785156 -2.242188 2.265625 -1.765625 C 2.742188 -1.285156 3.335938 -1.046875 4.046875 -1.046875 C 4.765625 -1.046875 5.410156 -1.320312 5.984375 -1.875 L 6.6875 -1.09375 C 6.332031 -0.738281 5.910156 -0.457031 5.421875 -0.25 C 4.941406 -0.0507812 4.460938 0.046875 3.984375 0.046875 C 2.953125 0.046875 2.085938 -0.289062 1.390625 -0.96875 C 0.691406 -1.65625 0.34375 -2.503906 0.34375 -3.515625 C 0.34375 -4.503906 0.695312 -5.335938 1.40625 -6.015625 C 2.113281 -6.691406 2.984375 -7.03125 4.015625 -7.03125 Z M 4.015625 -7.03125 "/></g></g></g><g fill="#a6a6a6" fill-opacity="1"><g transform="translate(200.67224, 248.687928)"><g><path d="M 5.921875 -5.9375 L 2.09375 -5.9375 L 2.09375 -4.046875 L 5.515625 -4.046875 L 5.515625 -2.984375 L 2.09375 -2.984375 L 2.09375 -1.0625 L 6.046875 -1.0625 L 6.046875 0 L 0.921875 0 L 0.921875 -7 L 5.921875 -7 Z M 5.921875 -5.9375 "/></g></g></g><g fill="#a6a6a6" fill-opacity="1"><g transform="translate(209.729655, 248.687928)"><g><path d="M 6.984375 0 L 5.828125 0 L 2.09375 -5.015625 L 2.09375 0 L 0.921875 0 L 0.921875 -7 L 2.078125 -7 L 5.828125 -1.96875 L 5.828125 -7 L 6.984375 -7 Z M 6.984375 0 "/></g></g></g><g fill="#a6a6a6" fill-opacity="1"><g transform="translate(220.146524, 248.687928)"><g><path d="M 5.703125 -5.9375 L 3.484375 -5.9375 L 3.484375 0 L 2.296875 0 L 2.296875 -5.9375 L 0.09375 -5.9375 L 0.09375 -7 L 5.703125 -7 Z M 5.703125 -5.9375 "/></g></g></g><g fill="#a6a6a6" fill-opacity="1"><g transform="translate(228.434232, 248.687928)"><g><path d="M 5.921875 -5.9375 L 2.09375 -5.9375 L 2.09375 -4.046875 L 5.515625 -4.046875 L 5.515625 -2.984375 L 2.09375 -2.984375 L 2.09375 -1.0625 L 6.046875 -1.0625 L 6.046875 0 L 0.921875 0 L 0.921875 -7 L 5.921875 -7 Z M 5.921875 -5.9375 "/></g></g></g><g fill="#a6a6a6" fill-opacity="1"><g transform="translate(237.491646, 248.687928)"><g><path d="M 5.359375 0 L 4.078125 -2.125 C 4.015625 -2.113281 3.910156 -2.109375 3.765625 -2.109375 L 2.09375 -2.109375 L 2.09375 0 L 0.921875 0 L 0.921875 -7 L 3.765625 -7 C 4.648438 -7 5.335938 -6.789062 5.828125 -6.375 C 6.328125 -5.957031 6.578125 -5.367188 6.578125 -4.609375 C 6.578125 -4.046875 6.453125 -3.570312 6.203125 -3.1875 C 5.953125 -2.800781 5.59375 -2.519531 5.125 -2.34375 L 6.703125 0 Z M 2.09375 -3.171875 L 3.765625 -3.171875 C 4.890625 -3.171875 5.453125 -3.640625 5.453125 -4.578125 C 5.453125 -5.484375 4.890625 -5.9375 3.765625 -5.9375 L 2.09375 -5.9375 Z M 2.09375 -3.171875 "/></g></g></g></svg>